<?xml version="1.0" encoding="utf-8"?>
<!-- Generator: Adobe Illustrator 13.0.0, SVG Export Plug-In . SVG Version: 6.00 Build 14948)  -->
<!DOCTYPE svg PUBLIC "-//W3C//DTD SVG 1.1//EN" "http://www.w3.org/Graphics/SVG/1.1/DTD/svg11.dtd">
<svg version="1.1" id="Layer_1" xmlns="http://www.w3.org/2000/svg" xmlns:xlink="http://www.w3.org/1999/xlink" x="0px" y="0px"
	 width="14.651px" height="16.004px" viewBox="0 0 14.651 16.004" enable-background="new 0 0 14.651 16.004" xml:space="preserve">
<g>
	<g>
		<path fill="#8CC63F" d="M10.564,8.668l-2.169,3.789H2.729c-1.246,0-1.637-0.398-1.887-0.893c-0.318-0.625-0.075-1.106,0.048-1.363
			L1.36,9.373l-0.393-0.72L0.656,9.226c-0.415,0.678-0.92,1.533-0.496,2.596c0.269,0.671,0.955,1.353,2.518,1.353h6.113l2.163-3.794
			L10.564,8.668z"/>
	</g>
	<g>
		<path fill="#0082C9" d="M14.115,9.42l-2.974-5.24H6.718L6.327,4.921h4.424l2.771,4.83c0.601,1.07,0.393,1.737,0.122,2.085
			c-0.418,0.532-1.017,0.603-1.302,0.621h-0.874l-0.403,0.717h0.608c1.774,0.047,2.226-0.512,2.531-0.916
			C14.641,11.688,14.864,10.706,14.115,9.42z"/>
	</g>
	<g>
		<g>
			<path fill="#F26722" d="M9.473,1.256C9.121,0.632,8.618,0.054,7.46,0.004C6.659-0.031,5.811,0.131,5.074,1.479L2.118,6.646
				l2.156,3.768h0.794L2.914,6.646l2.761-4.821c0.637-1.087,1.222-1.15,1.747-1.137c0.81,0.02,1.158,0.477,1.345,0.744l0.438,0.755
				h0.813C10.017,2.187,9.55,1.391,9.473,1.256z"/>
		</g>
		<g>
			<path fill="#00AEEF" d="M5.181,14.748C5.532,15.371,6.035,15.949,7.194,16c0.8,0.034,1.647-0.128,2.385-1.476l2.956-5.167
				l-2.156-3.768H9.585l2.155,3.768l-2.761,4.821c-0.638,1.087-1.223,1.149-1.747,1.137c-0.811-0.02-1.158-0.477-1.346-0.744
				l-0.432-0.754H4.671C4.671,13.817,5.104,14.611,5.181,14.748z"/>
		</g>
		<g>
			<path fill="#C44D9C" d="M14.476,4.178c-0.289-0.663-0.935-1.336-2.563-1.336H5.901L3.734,6.677l0.393,0.699l2.185-3.839h5.602
				c1.348,0,1.71,0.535,1.884,0.943c0.267,0.629,0.048,1.131-0.074,1.388l-0.429,0.76l0.41,0.696l0.269-0.476
				C14.387,6.17,14.938,5.244,14.476,4.178z"/>
		</g>
		<g>
			<path fill="#FAA61A" d="M3.9,11.122L1.133,6.273C0.531,5.202,0.771,4.479,1.035,4.127c0.382-0.506,0.898-0.59,1.276-0.59
				c0.251,0,0.874,0,0.874,0l0.406-0.695H2.907C2.272,2.838,1.124,2.722,0.406,3.76c-0.408,0.592-0.652,1.479,0.117,2.828
				l2.985,5.237h4.47l0.379-0.703H3.9z"/>
		</g>
	</g>
</g>
</svg>
